<svg xmlns="http://www.w3.org/2000/svg" width="48" height="48" viewBox="0 0 500 500" fill="none" stroke="currentColor" stroke-width="20" stroke-linecap="round" stroke-linejoin="round">
  <defs></defs>
  <rect class="cls-1" x="365.81" y="-58.4" width="85.46" height="63.53"></rect>
  <path class="cls-3" d="M187,307s-90.7,6.35-90.7-61.42,59.06-65.66,59.06-65.66c0,0-1.85-61.41,57.21-61.41s60.9,48.7,60.9,48.7c0,0,29.53-14.5,47.46,3.5,17.93,18,11.6,36.74,11.6,36.74,0,0,54.84-1.64,54.84,53.43s-52.73,50.36-52.73,50.36"></path>
  <polygon class="cls-2" points="252.39 239.09 168.61 239.09 168.61 187.97 252.39 187.97 252.39 239.09 252.39 239.09"></polygon>
  <polygon class="cls-2" points="331.54 336.58 247.76 336.58 247.76 284.22 331.54 284.22 331.54 336.58 331.54 336.58"></polygon>
  <polygon class="cls-2" points="191.12 392.16 107.35 392.16 107.35 339.8 191.12 339.8 191.12 392.16 191.12 392.16"></polygon>
  <line class="cls-3" x1="168.23" y1="248.92" x2="125.23" y2="328.47"></line>
  <line class="cls-3" x1="260.79" y1="229.4" x2="302.93" y2="276.6"></line>
  <line class="cls-3" x1="291.35" y1="356.03" x2="199.18" y2="386.56"></line>
  <line class="cls-3" x1="266.19" y1="345.96" x2="313.12" y2="345.96"></line>
  <line class="cls-3" x1="125.77" y1="401.53" x2="172.7" y2="401.53"></line>
  <line class="cls-3" x1="187.04" y1="249.63" x2="233.97" y2="249.63"></line>
</svg>