<svg xmlns="http://www.w3.org/2000/svg" width="48" height="48" viewBox="0 0 498.73 498.73" fill="none" stroke="currentColor" stroke-width="20" stroke-linecap="round" stroke-linejoin="round">
  <defs></defs>
  <g id="Ebene_2" data-name="Ebene 2">
    <path class="cls-1" d="M151.11,133.21h86.95c2.66,0,5.18,1.08,6.89,2.94l31.83,34.86-.67-29.45c-.1-4.59,3.94-8.35,8.96-8.35s8.97-3.66,8.97-8.18v-63.1c0-7.87-6.99-14.24-15.61-14.24h-120.68c-8.62,0-15.61,6.38-15.61,14.24v63.1c0,4.52,4.01,8.18,8.97,8.18,0,0-4.95,0,0,0Z"></path>
    <g>
      <path class="cls-2" d="M47.72,127.12c-16.76-36.98,48.31-44.5,39.18-9.83-7.26,23.81-3.66,31.42-3.66,31.42"></path>
      <line class="cls-2" x1="89.77" y1="161.34" x2="90.3" y2="162.41"></line>
    </g>
  </g>
  <g id="Ebene_4" data-name="Ebene 4">
    <g>
      <path class="cls-2" d="M108.95,194.92s85.39-25.06,107.35,9.11,29.28,72.92,26.84,107.09c-2.44,34.18-28.84,111.45-75.19,109.17-46.36-2.28-102.91-68.16-102.91-97.78"></path>
      <path class="cls-2" d="M195.66,353.29s-45.97,14.36-66.08,0c-20.11-14.36,5.75,31.6,28.73,28.73s34.48-8.62,34.48-8.62"></path>
      <path class="cls-2" d="M129.58,244.12s-28.73-17.24-43.09,2.87"></path>
      <path class="cls-2" d="M178.42,241.24s14.36-11.49,28.73,0"></path>
      <path class="cls-2" d="M195.66,267.1s-2.87,14.36,5.75,11.49c8.62-2.87,11.49-8.62,5.75-14.36-5.75-5.75-34.47,5.75-34.47,5.75"></path>
      <path class="cls-2" d="M112.34,272.84s-2.87,14.36,5.75,11.49c8.62-2.87,11.49-8.62,5.75-14.36-5.75-5.75-34.47,5.75-34.47,5.75"></path>
    </g>
    <g>
      <path class="cls-2" d="M437.07,154.79s-102.99-37.64-128.85-1.76c-25.86,35.88-29.16,72.18-26.29,108.06,2.87,35.88,17.24,129.28,98.11,126.36,54.6-1.97,80.01-57.92,80.01-89.01"></path>
      <path class="cls-2" d="M405.47,301.31s-31.6,14.36-67.04,12.09c-24.66-1.58,7.61,16.64,30.6,13.77s22.98-8.62,22.98-8.62"></path>
      <path class="cls-2" d="M390.8,202.18s32.98-5.89,39.25,18.02"></path>
      <path class="cls-2" d="M341.39,205.09s-15.82-9.38-28.45,4"></path>
      <path class="cls-2" d="M331.67,240.3s7.42,12.63-1.66,12.74c-9.08.11-13.68-4.38-10.14-11.69,3.55-7.31,22.4-8.99,22.4-8.99"></path>
      <path class="cls-2" d="M408.11,237.97s.12,14.65-7.8,10.21c-7.93-4.44-9.67-10.62-2.94-15.19,6.72-4.56,22.47,2.24,22.47,2.24"></path>
    </g>
  </g>
</svg>